<?xml version="1.0" standalone="no"?>
<!DOCTYPE svg PUBLIC "-//W3C//DTD SVG 20010904//EN"
 "http://www.w3.org/TR/2001/REC-SVG-20010904/DTD/svg10.dtd">
<svg version="1.0" xmlns="http://www.w3.org/2000/svg"
 width="1280.000000pt" height="1209.000000pt" viewBox="0 0 1280.000000 1209.000000"
 preserveAspectRatio="xMidYMid meet">
<metadata>
Created by potrace 1.15, written by Peter Selinger 2001-2017
</metadata>
<g transform="translate(0.000000,1209.000000) scale(0.100000,-0.100000)"
fill="#000000" stroke="none">
<path d="M6359 12075 c-14 -7 -34 -33 -45 -57 -29 -65 -24 -151 20 -283 19
-60 43 -156 52 -213 10 -56 19 -100 21 -98 2 2 11 44 18 92 8 49 31 145 51
214 52 177 48 292 -13 340 -30 23 -67 25 -104 5z"/>
<path d="M2641 11823 c-46 -51 -52 -87 -23 -123 16 -20 21 -21 39 -9 17 10 27
10 46 2 21 -10 28 -8 46 11 31 33 26 60 -23 115 l-45 50 -40 -46z"/>
<path d="M10021 11823 c-46 -51 -52 -87 -23 -123 16 -20 21 -21 39 -9 17 10
27 10 46 2 21 -10 28 -8 46 11 31 33 26 60 -23 115 l-45 50 -40 -46z"/>
<path d="M6008 11830 c-24 -14 -41 -72 -29 -101 13 -36 37 -53 131 -96 66 -30
96 -52 134 -94 l49 -54 -5 52 c-7 74 -60 176 -128 245 -50 52 -60 58 -95 58
-22 0 -48 -5 -57 -10z"/>
<path d="M6684 11821 c-71 -43 -161 -196 -172 -289 l-5 -47 49 52 c35 37 74
63 136 93 130 61 167 120 117 184 -25 32 -79 35 -125 7z"/>
<path d="M1914 11776 c-21 -56 73 -122 136 -96 38 16 45 27 30 45 -15 19 -40
19 -40 2 0 -7 -7 -22 -16 -33 -15 -18 -15 -18 -5 3 12 24 15 76 5 86 -11 11
-44 -13 -66 -46 -17 -28 -19 -29 -13 -7 3 14 7 32 8 40 3 20 -32 25 -39 6z"/>
<path d="M2413 11779 c-12 -4 -50 -11 -85 -15 -35 -3 -78 -12 -95 -20 -50 -20
-105 -65 -99 -81 3 -8 -1 -16 -10 -20 -8 -3 -41 -32 -72 -65 -65 -68 -107 -93
-175 -103 -50 -8 -64 5 -27 25 22 12 120 147 120 164 -1 6 -13 -8 -27 -32
l-26 -44 -12 34 c-7 18 -20 50 -29 70 -9 21 -16 48 -16 60 0 19 -2 20 -10 8
-15 -24 -12 -69 11 -137 20 -59 21 -64 5 -88 -9 -13 -30 -32 -47 -41 -30 -15
-34 -15 -90 13 -58 29 -79 24 -41 -10 32 -29 90 -47 152 -47 66 0 116 17 167
56 43 32 62 22 103 -54 17 -32 44 -66 59 -75 32 -19 126 -23 151 -7 12 8 11
10 -6 10 -27 0 -61 37 -70 75 -18 80 -72 123 -141 112 l-36 -6 39 40 c54 55
99 67 169 45 40 -12 59 -25 69 -44 34 -64 121 -123 212 -143 39 -9 62 -22 90
-50 l36 -37 31 35 c17 19 42 40 56 45 15 6 21 12 14 15 -7 3 -13 13 -13 22 0
10 -9 30 -20 44 -18 23 -24 25 -46 15 -20 -9 -30 -9 -47 1 -18 12 -23 11 -39
-9 -10 -12 -18 -36 -18 -52 0 -23 -4 -28 -17 -24 -10 3 -31 8 -48 12 -16 4
-43 13 -60 22 -31 15 -105 81 -105 93 0 4 21 -1 48 -11 47 -18 103 -37 133
-47 9 -2 29 6 44 19 24 21 26 27 16 46 -9 16 -9 27 -1 43 9 16 8 25 -6 40 -9
10 -25 21 -35 24 -22 7 -72 -21 -109 -60 l-25 -27 23 -18 c52 -43 4 -31 -118
30 -74 36 -92 41 -137 37 -29 -2 -53 -2 -53 0 0 11 64 25 126 27 76 3 127 25
152 66 16 27 13 30 -15 19z"/>
<path d="M10309 11772 c28 -52 97 -81 186 -80 28 1 62 -5 77 -13 26 -13 24
-14 -40 -14 -59 -1 -76 -6 -142 -42 -41 -22 -88 -44 -105 -47 l-30 -6 28 25
28 25 -42 37 c-56 52 -71 58 -105 41 -27 -12 -29 -17 -30 -76 -1 -68 9 -85 54
-85 26 0 39 4 145 44 46 17 47 17 37 0 -24 -45 -101 -92 -182 -110 -36 -8 -38
-8 -38 17 0 14 -9 36 -21 48 -18 19 -25 21 -46 11 -19 -8 -29 -8 -46 2 -18 12
-23 11 -39 -9 -10 -12 -18 -35 -18 -50 l0 -28 -69 13 c-129 25 -150 33 -157
62 -4 14 -2 34 5 44 6 10 11 36 10 56 0 21 -3 31 -6 23 -3 -8 -12 -30 -21 -49
-12 -27 -13 -39 -4 -64 6 -17 11 -32 9 -33 -7 -7 -84 28 -94 43 -7 9 -13 12
-13 5 0 -22 52 -45 163 -73 104 -25 110 -28 84 -38 -43 -17 -73 -13 -128 14
-37 19 -54 23 -67 16 -11 -7 -12 -11 -4 -11 7 0 30 -12 49 -27 47 -36 113 -37
167 -4 47 29 76 23 122 -29 l35 -39 35 39 c26 29 46 40 77 45 90 14 166 62
227 143 31 40 98 66 151 57 33 -6 119 -66 119 -83 0 -4 -22 -7 -49 -7 -63 0
-96 -29 -117 -102 -16 -54 -42 -82 -79 -84 -46 -1 20 -18 76 -18 68 -1 99 19
133 87 13 26 33 56 45 66 21 19 22 19 64 -11 54 -39 98 -53 161 -53 70 0 119
15 150 46 41 42 31 46 -34 13 -64 -33 -78 -31 -127 14 -28 25 -29 47 -3 121
15 40 19 68 14 94 l-7 37 -17 -50 c-10 -28 -25 -68 -35 -90 -16 -36 -19 -38
-29 -21 -6 10 -19 28 -29 40 -13 15 -12 9 5 -23 13 -23 47 -68 76 -99 28 -31
52 -58 52 -60 0 -10 -99 11 -137 30 -24 11 -67 46 -96 79 -30 32 -59 59 -66
59 -7 0 -9 5 -5 11 10 16 -41 64 -94 87 -26 11 -78 24 -117 29 -38 6 -78 13
-89 18 -16 7 -17 6 -7 -13z"/>
<path d="M10719 11766 c-9 -19 -8 -31 5 -56 13 -27 13 -30 1 -20 -8 7 -15 18
-15 26 0 17 -15 25 -34 18 -24 -9 -19 -31 9 -50 22 -14 32 -15 65 -5 30 9 40
17 40 32 0 28 -17 56 -40 69 -17 9 -22 7 -31 -14z"/>
<path d="M10791 11781 c-11 -7 -11 -12 2 -31 8 -12 13 -30 10 -39 -3 -12 -1
-11 11 3 9 11 16 32 16 48 0 28 -13 35 -39 19z"/>
<path d="M5492 11759 c-67 -34 -96 -85 -101 -180 -2 -65 1 -86 19 -124 43 -88
148 -126 250 -91 24 8 47 13 50 10 3 -3 -67 -77 -155 -163 -176 -173 -234
-211 -331 -219 -132 -11 -220 103 -170 222 18 43 81 69 114 47 10 -6 9 -14 -5
-39 -16 -29 -17 -34 -3 -59 31 -55 103 -53 129 4 42 91 -43 185 -153 169 -97
-15 -151 -81 -151 -186 0 -185 177 -266 371 -170 56 27 98 62 218 179 82 80
146 137 142 126 -14 -39 -18 -141 -7 -181 51 -188 277 -219 362 -51 52 100
-34 230 -140 213 -71 -11 -108 -99 -61 -146 24 -24 38 -25 68 -4 16 11 22 25
22 55 l0 40 29 -15 c16 -9 34 -29 40 -46 42 -123 -132 -215 -227 -120 -58 58
-67 186 -18 280 84 164 383 173 513 15 78 -94 85 -278 12 -329 -32 -22 -85
-20 -109 4 -24 24 -26 63 -5 80 12 10 18 8 33 -10 16 -20 21 -21 41 -11 18 10
22 19 19 49 -4 51 -41 69 -93 48 -70 -30 -83 -129 -25 -188 24 -23 37 -28 78
-28 60 0 107 29 138 84 l21 37 20 -38 c28 -54 75 -83 135 -83 44 0 54 4 85 35
33 33 35 38 31 87 -4 42 -11 56 -34 75 -38 30 -88 30 -108 1 -22 -30 -20 -51
5 -74 21 -19 21 -18 39 4 21 26 36 28 44 6 27 -71 -39 -118 -113 -79 -72 37
-77 207 -9 309 59 90 179 143 300 133 162 -14 246 -93 256 -243 5 -86 -9 -134
-49 -168 -107 -91 -280 18 -218 137 25 46 59 50 59 7 0 -31 30 -70 53 -70 23
0 55 29 61 56 10 37 -11 82 -45 99 -87 46 -189 -29 -189 -138 0 -85 50 -145
138 -167 95 -22 174 16 217 105 24 48 27 63 23 132 -3 43 -8 87 -13 98 -5 11
59 -46 141 -126 178 -173 241 -212 359 -217 62 -3 77 0 125 25 44 23 59 39 82
82 64 122 16 249 -105 282 -77 21 -142 -5 -172 -68 -22 -45 -13 -95 22 -123
67 -52 148 18 99 86 -29 39 19 58 74 29 39 -20 50 -43 50 -105 0 -61 -18 -100
-62 -132 -27 -19 -46 -23 -103 -23 -108 0 -165 36 -355 222 -85 83 -152 154
-149 157 3 3 27 -1 53 -10 167 -57 311 86 267 263 -24 95 -97 152 -194 153
-58 0 -94 -17 -136 -65 -39 -45 -43 -107 -10 -149 18 -23 28 -27 63 -24 33 2
43 8 54 31 17 35 -2 80 -36 85 -28 4 -28 13 1 40 17 16 36 22 66 22 86 0 144
-63 144 -156 0 -62 -24 -109 -73 -141 -42 -29 -80 -29 -177 1 -198 62 -341 84
-430 66 -117 -25 -216 -98 -261 -193 l-23 -49 -25 50 c-32 64 -109 136 -182
170 -51 24 -69 27 -162 27 -109 0 -144 -7 -334 -66 -109 -34 -160 -35 -205 -2
-81 59 -81 199 -2 266 42 35 120 38 151 7 25 -25 25 -40 0 -40 -39 0 -54 -74
-22 -103 21 -19 64 -22 92 -7 24 13 43 71 34 106 -25 105 -155 156 -262 103z"/>
<path d="M4035 11754 c-216 -39 -361 -96 -780 -308 -386 -196 -416 -206 -626
-206 -342 0 -756 85 -1268 261 -82 28 -130 39 -172 39 -102 0 -180 -46 -222
-130 -22 -44 -26 -48 -32 -30 -9 30 -63 88 -96 106 -37 19 -113 18 -155 -2
-46 -22 -108 -94 -122 -142 -24 -80 -16 -132 58 -350 160 -479 236 -881 228
-1206 -6 -202 -7 -206 -218 -621 -159 -314 -210 -431 -254 -585 -93 -319 -69
-662 62 -913 41 -79 107 -152 157 -173 85 -35 185 -6 255 73 78 89 115 204
114 353 -2 108 -32 218 -86 304 -22 37 -26 51 -17 57 29 18 190 52 274 58 l90
7 -45 14 c-69 23 -231 18 -304 -9 -77 -28 -81 -27 -58 12 10 17 47 80 82 138
34 59 83 131 109 160 l46 53 -48 -33 c-27 -18 -64 -47 -83 -63 -49 -43 -128
-166 -152 -236 l-20 -60 44 -53 c125 -152 161 -324 104 -487 -53 -151 -162
-238 -262 -211 -144 38 -263 303 -275 609 -10 279 34 434 245 850 285 562 274
532 280 753 9 334 -72 757 -238 1249 -64 188 -72 241 -44 306 57 137 211 164
279 47 28 -47 31 -81 11 -129 -18 -42 -51 -66 -94 -66 -73 0 -110 90 -57 140
14 13 25 29 25 37 0 24 -38 14 -64 -18 -54 -63 -23 -163 59 -195 43 -16 45
-16 92 7 35 18 53 35 68 66 11 23 22 42 25 42 3 0 12 -14 21 -32 9 -17 34 -45
56 -61 109 -76 259 -20 271 102 4 46 2 53 -29 86 -55 61 -154 60 -194 0 -29
-45 3 -60 41 -19 34 37 84 34 118 -6 35 -41 33 -72 -7 -115 -84 -92 -237 -23
-237 106 0 93 91 170 202 170 38 0 95 -15 197 -50 289 -101 596 -179 871 -222
116 -18 187 -23 355 -23 196 0 214 2 275 24 93 33 243 106 458 220 431 229
625 288 912 278 171 -5 297 -34 426 -96 130 -62 194 -133 194 -214 0 -51 -14
-81 -59 -130 -82 -88 -243 -139 -375 -118 -83 13 -212 73 -270 126 -22 19 -43
35 -47 35 -25 0 -143 -51 -191 -84 -63 -41 -159 -140 -184 -189 -15 -28 -10
-25 44 23 33 30 100 77 149 104 48 27 107 62 131 77 48 32 51 26 21 -51 -27
-70 -35 -204 -16 -280 l13 -55 12 90 c11 81 54 260 65 272 3 2 27 -10 53 -27
158 -100 402 -112 569 -28 105 53 175 145 175 228 -1 200 -326 362 -724 359
-72 0 -167 -7 -211 -15z"/>
<path d="M8335 11756 c-228 -44 -410 -137 -469 -239 -53 -93 -43 -166 36 -253
65 -70 147 -111 268 -131 132 -22 248 -3 374 61 50 25 91 44 93 43 13 -13 55
-211 60 -281 7 -99 15 -94 33 21 13 79 0 194 -30 261 -11 25 -19 47 -17 49 8
7 261 -145 319 -191 59 -47 60 -48 42 -16 -51 88 -182 192 -297 235 -69 26
-73 25 -130 -29 -53 -49 -168 -103 -253 -117 -183 -30 -399 72 -435 205 -36
133 106 253 387 327 78 21 112 24 269 24 154 -1 194 -4 275 -24 145 -35 323
-110 555 -232 472 -248 532 -269 752 -269 79 0 187 5 241 10 272 30 626 112
953 221 225 75 274 82 344 50 51 -23 102 -81 110 -125 19 -98 -85 -196 -181
-172 -15 4 -39 20 -55 36 -83 82 28 205 112 124 15 -14 32 -23 38 -20 37 23
-20 77 -86 83 -155 13 -193 -182 -49 -248 52 -23 100 -24 151 0 40 18 105 82
105 103 0 6 10 -9 23 -33 17 -32 35 -50 70 -68 47 -23 49 -23 92 -7 82 32 113
132 59 195 -26 32 -64 42 -64 18 0 -8 11 -24 25 -37 53 -50 16 -140 -57 -140
-43 0 -76 24 -94 66 -20 48 -17 82 11 129 68 117 222 90 279 -47 27 -63 20
-122 -30 -263 -105 -298 -183 -607 -231 -915 -13 -83 -18 -173 -18 -325 0
-277 -20 -220 277 -805 211 -416 255 -571 245 -850 -12 -306 -131 -571 -275
-609 -100 -27 -209 60 -262 211 -57 163 -21 335 105 488 l44 53 -25 66 c-28
76 -100 187 -149 230 -18 16 -55 44 -82 62 l-48 33 46 -53 c26 -29 75 -101
109 -160 35 -58 72 -121 82 -138 23 -39 19 -40 -58 -12 -73 27 -235 32 -304 9
l-45 -14 90 -7 c84 -6 245 -40 274 -58 9 -6 5 -20 -17 -57 -125 -204 -113
-497 28 -657 70 -79 170 -108 255 -73 110 46 219 251 260 490 19 114 19 309 0
422 -37 212 -97 368 -291 749 -216 427 -216 429 -222 631 -8 325 68 727 228
1206 74 218 82 270 58 350 -14 48 -76 120 -122 142 -39 19 -117 21 -149 5 -33
-17 -77 -61 -94 -93 l-15 -30 -15 35 c-34 82 -127 139 -228 139 -46 0 -92 -11
-202 -50 -335 -117 -686 -202 -973 -235 -149 -18 -378 -19 -452 -4 -76 17
-239 88 -423 187 -310 166 -502 246 -710 299 -83 20 -130 25 -275 29 -120 2
-197 -1 -245 -10z"/>
<path d="M2780 11697 c-21 -11 -25 -20 -23 -51 2 -21 -2 -46 -7 -56 -11 -21
11 -45 51 -55 22 -5 36 1 77 37 28 24 51 45 51 48 0 10 -100 90 -112 90 -7 0
-23 -6 -37 -13z"/>
<path d="M9884 11682 c-66 -48 -71 -58 -43 -88 36 -38 86 -66 108 -59 10 3 26
14 35 24 14 15 15 24 6 40 -8 16 -8 27 1 43 10 19 8 25 -15 45 -35 30 -45 29
-92 -5z"/>
<path d="M3060 11650 c0 -36 24 -50 48 -27 14 15 14 18 -3 37 -27 29 -45 25
-45 -10z"/>
<path d="M9640 11665 c-17 -21 -2 -50 26 -50 14 0 19 7 19 30 0 34 -24 45 -45
20z"/>
<path d="M2970 11645 c0 -14 7 -39 16 -56 17 -33 11 -64 -14 -78 -9 -5 -44
-14 -77 -21 -89 -19 -95 -24 -54 -49 67 -41 96 -38 197 18 54 31 8 36 -49 6
-27 -14 -61 -25 -76 -25 -34 0 -73 10 -73 19 0 3 45 17 100 30 55 13 100 25
100 28 0 3 -9 3 -20 0 -11 -3 -20 -4 -20 -3 0 2 5 17 11 34 9 25 8 36 -5 54
-9 12 -16 30 -16 40 0 9 -4 20 -10 23 -6 4 -10 -5 -10 -20z"/>
<path d="M2662 11648 c-30 -30 0 -78 37 -58 26 14 27 46 2 60 -24 13 -24 13
-39 -2z"/>
<path d="M10042 11648 c-30 -30 0 -78 37 -58 32 17 21 70 -14 70 -6 0 -16 -5
-23 -12z"/>
<path d="M4321 11601 c-26 -26 -27 -77 -4 -110 16 -23 15 -25 -8 -42 -48 -36
-63 -53 -51 -57 7 -2 12 -17 12 -32 0 -19 7 -33 19 -40 27 -14 29 -13 24 14
-3 13 3 38 11 55 9 17 14 36 11 41 -13 21 7 28 34 12 27 -15 28 -17 13 -40
-14 -21 -13 -25 5 -50 26 -35 81 -41 143 -14 25 11 58 25 73 31 21 8 28 17 25
33 -2 13 -11 24 -21 26 -14 3 -17 -1 -12 -21 5 -17 2 -26 -9 -30 -21 -8 -36
22 -36 72 0 75 -65 106 -116 56 -17 -17 -23 -32 -19 -45 8 -26 -4 -25 -46 3
-32 21 -49 68 -24 66 6 0 9 -12 8 -27 -2 -26 -1 -26 13 -7 21 29 13 50 -19 50
-34 -1 -33 24 1 41 19 9 20 13 8 23 -12 10 -19 8 -35 -8z"/>
<path d="M8460 11603 c0 -5 10 -13 22 -18 13 -6 24 -18 26 -27 3 -13 -3 -16
-25 -15 -24 2 -28 -2 -27 -23 0 -14 3 -31 5 -39 2 -8 -7 -20 -21 -27 -24 -13
-25 -12 -28 16 -4 33 -34 60 -68 60 -38 0 -64 -31 -70 -85 -8 -60 -21 -80 -40
-64 -10 8 -11 16 -3 30 8 16 6 19 -10 19 -25 0 -36 -30 -17 -48 20 -20 112
-54 163 -59 32 -4 46 0 62 16 23 23 28 60 10 78 -8 8 -3 15 19 27 32 16 46 9
36 -17 -3 -8 2 -29 11 -47 9 -17 13 -40 10 -50 -7 -21 2 -25 23 -11 15 9 33
77 26 95 -2 6 -18 19 -35 29 -23 13 -29 22 -24 35 29 69 30 73 15 100 -14 25
-60 44 -60 25z m35 -91 c0 -31 -19 -28 -23 4 -3 18 0 25 10 22 7 -3 13 -14 13
-26z"/>
<path d="M3071 11540 c-13 -11 -19 -20 -14 -20 6 0 18 9 28 20 23 25 17 25
-14 0z"/>
<path d="M3725 11419 c-38 -5 -74 -14 -80 -21 -7 -8 -4 -9 12 -5 33 8 165 -9
292 -38 154 -35 232 -19 118 23 -116 44 -224 57 -342 41z"/>
<path d="M8855 11420 c-54 -11 -157 -48 -168 -59 -14 -14 36 -25 81 -18 20 3
91 17 157 31 66 14 149 26 185 27 55 0 61 2 40 11 -33 13 -243 20 -295 8z"/>
<path d="M582 10661 c33 -64 31 -78 -15 -128 -25 -28 -37 -28 -115 -2 -46 15
-73 19 -100 14 l-37 -8 35 -9 c45 -11 140 -51 140 -59 0 -3 -17 -15 -37 -27
-21 -12 -33 -22 -27 -22 19 0 131 78 158 111 14 16 28 29 31 29 12 0 -6 -92
-23 -127 -18 -33 -148 -173 -162 -173 -13 0 -72 -71 -85 -104 -7 -17 -16 -62
-20 -101 -4 -38 -11 -78 -16 -87 -23 -42 34 -7 62 38 17 28 23 54 25 109 1 40
9 85 17 100 13 26 14 25 10 -26 -4 -48 1 -64 40 -144 24 -49 47 -103 50 -120
l7 -30 -24 29 -25 30 -40 -45 c-51 -56 -56 -71 -36 -109 13 -26 21 -31 38 -25
29 9 37 9 69 0 24 -6 29 -3 44 27 15 32 15 37 0 66 -9 17 -16 38 -16 46 0 8
-9 35 -20 60 -10 25 -15 46 -10 46 23 0 91 -97 110 -158 11 -35 20 -66 20 -68
0 -2 -13 -4 -30 -4 -17 0 -39 -9 -50 -20 -16 -16 -18 -24 -9 -44 8 -17 8 -29
0 -45 -9 -17 -8 -24 9 -41 11 -11 33 -20 49 -20 l28 0 -9 -47 c-24 -132 -33
-157 -60 -172 -24 -14 -30 -13 -61 3 -25 14 -42 17 -63 11 -24 -7 -25 -9 -9
-12 11 -2 37 -11 58 -20 30 -13 42 -14 63 -4 15 6 28 10 29 9 8 -8 -25 -81
-42 -94 -17 -13 -17 -14 0 -8 26 9 42 47 68 161 13 57 27 103 30 103 9 0 19
-39 19 -73 0 -15 -12 -50 -26 -77 -20 -38 -23 -53 -15 -67 6 -11 11 -13 11 -5
0 7 11 28 24 45 39 52 43 98 12 161 -33 67 -28 94 24 139 l38 32 -38 33 c-29
24 -40 41 -45 74 -11 77 -61 165 -118 210 -58 45 -73 67 -82 120 -9 52 8 97
54 142 l39 38 -5 -44 c-6 -64 21 -100 94 -128 71 -26 93 -45 94 -79 1 -52 18
11 18 70 1 69 -17 95 -96 141 -73 43 -84 60 -56 90 75 80 85 257 18 324 -40
40 -45 27 -13 -35z"/>
<path d="M12205 10696 c-67 -67 -57 -244 18 -324 28 -30 17 -47 -56 -90 -79
-46 -97 -72 -96 -141 0 -59 17 -122 18 -70 1 34 23 53 94 79 73 28 100 64 94
128 l-5 44 39 -38 c46 -45 63 -90 54 -142 -9 -53 -24 -75 -82 -120 -57 -45
-107 -133 -118 -209 -5 -33 -16 -51 -45 -76 l-38 -32 38 -32 c52 -44 57 -72
24 -139 -31 -63 -27 -109 12 -161 13 -17 24 -38 24 -45 0 -8 5 -6 11 5 8 14 5
29 -15 67 -14 27 -26 62 -26 77 0 34 10 73 19 73 3 0 17 -46 30 -103 26 -114
42 -152 68 -161 17 -6 17 -5 0 8 -17 13 -50 86 -42 94 1 1 14 -3 29 -9 21 -10
33 -9 63 4 21 9 47 18 58 20 16 3 15 5 -9 12 -21 6 -38 3 -63 -11 -31 -16 -37
-17 -61 -4 -27 16 -34 34 -56 148 l-14 72 29 0 c16 0 38 9 49 20 16 16 18 24
9 44 -8 17 -8 29 0 45 9 17 8 24 -9 41 -11 11 -33 20 -50 20 -16 0 -30 2 -30
4 0 2 9 33 20 68 19 61 87 158 110 158 5 0 0 -21 -10 -46 -11 -25 -20 -52 -20
-59 0 -8 -7 -30 -16 -48 -15 -31 -15 -36 1 -66 14 -29 20 -32 43 -26 32 9 40
9 69 0 17 -6 25 -1 38 25 20 38 15 53 -36 109 l-40 45 -25 -30 -24 -29 7 30
c3 17 26 71 50 120 39 80 44 96 40 144 -4 51 -3 52 10 26 8 -15 16 -60 17
-100 2 -55 8 -81 25 -109 29 -46 85 -80 62 -37 -6 10 -13 49 -17 87 -4 38 -12
83 -19 100 -13 32 -72 104 -85 104 -14 0 -144 140 -162 173 -17 35 -35 127
-23 127 3 0 17 -13 31 -29 27 -33 139 -111 158 -111 6 0 -6 10 -26 22 -21 12
-38 24 -38 27 0 8 95 48 140 59 l35 9 -37 8 c-27 5 -54 1 -100 -14 -78 -26
-90 -26 -115 2 -46 50 -48 64 -15 128 32 62 27 75 -13 35z"/>
<path d="M305 10471 c-3 -6 -3 -20 0 -32 6 -19 8 -19 32 -4 13 9 32 14 41 10
15 -5 15 -4 2 9 -20 20 -66 30 -75 17z"/>
<path d="M12444 10470 c-12 -5 -25 -13 -28 -19 -4 -7 -1 -8 8 -5 8 3 26 -2 39
-11 24 -15 26 -15 32 4 12 37 -7 49 -51 31z"/>
<path d="M321 10404 c-11 -15 -18 -30 -15 -35 8 -13 61 -11 87 3 20 10 21 10
8 -5 -7 -10 -22 -17 -32 -17 -23 0 -25 -23 -3 -41 14 -11 19 -10 35 10 22 27
23 37 8 80 -14 41 -58 44 -88 5z"/>
<path d="M12392 10405 c-17 -36 -15 -59 7 -86 16 -20 21 -21 35 -10 22 18 20
41 -3 41 -10 0 -25 7 -32 17 -13 15 -12 15 8 5 35 -19 83 -15 83 6 0 50 -78
71 -98 27z"/>
<path d="M272 9748 l-50 -42 47 -43 c52 -48 89 -55 121 -23 17 17 18 24 9 41
-8 16 -8 28 1 48 10 22 9 28 -10 43 -34 28 -64 22 -118 -24z"/>
<path d="M12410 9772 c-20 -16 -21 -21 -10 -41 9 -18 9 -30 1 -47 -9 -20 -7
-28 9 -44 32 -32 69 -25 121 23 l47 43 -50 42 c-55 46 -84 52 -118 24z"/>
<path d="M439 9724 c-17 -21 0 -49 31 -49 31 0 48 28 31 49 -8 9 -21 16 -31
16 -10 0 -23 -7 -31 -16z"/>
<path d="M12299 9724 c-17 -21 0 -49 31 -49 31 0 48 28 31 49 -8 9 -21 16 -31
16 -10 0 -23 -7 -31 -16z"/>
<path d="M394 9607 c-19 -39 -16 -46 39 -106 l37 -41 38 41 c54 60 57 67 38
106 -14 29 -20 34 -39 28 -12 -4 -29 -7 -37 -7 -8 0 -25 3 -37 7 -19 6 -25 1
-39 -28z"/>
<path d="M12254 9607 c-19 -39 -16 -46 39 -106 l37 -41 38 41 c54 60 57 67 38
106 -14 29 -20 34 -39 28 -12 -4 -29 -7 -37 -7 -8 0 -25 3 -37 7 -19 6 -25 1
-39 -28z"/>
<path d="M416 9321 c-9 -14 3 -39 22 -46 20 -7 47 19 39 39 -7 17 -52 22 -61
7z"/>
<path d="M12323 9314 c-8 -20 19 -46 39 -39 19 7 31 32 22 46 -9 15 -54 10
-61 -7z"/>
<path d="M674 8775 c-5 -22 -9 -94 -9 -160 0 -121 17 -198 60 -275 l13 -25 7
28 c9 33 5 65 -25 202 -12 55 -25 138 -29 185 -7 81 -8 83 -17 45z"/>
<path d="M12107 8724 c-4 -49 -16 -132 -27 -184 -29 -130 -34 -164 -25 -197
l7 -28 13 25 c8 14 25 54 37 90 20 56 23 84 22 200 0 169 -18 228 -27 94z"/>
<path d="M676 8204 c-9 -10 -25 -30 -35 -43 -17 -23 -19 -24 -42 -8 -42 30
-119 16 -119 -22 0 -28 12 -33 24 -9 17 34 42 35 41 1 0 -29 13 -33 61 -18 15
5 23 0 32 -20 16 -35 16 -35 -17 -35 -34 0 -61 -30 -61 -67 0 -34 34 -63 74
-63 46 0 89 -17 83 -33 -2 -6 -16 -12 -31 -12 -33 1 -32 -28 2 -33 16 -3 25 4
33 25 6 15 20 47 30 71 24 55 25 114 1 135 -21 19 -67 23 -78 6 -4 -7 -13 0
-25 17 -21 32 -16 48 12 39 12 -4 31 1 46 10 14 9 36 15 49 12 27 -5 28 -3 14
24 -7 12 -21 19 -40 19 -15 0 -30 5 -32 12 -3 8 -10 5 -22 -8z m-71 -73 c7
-12 -31 -25 -45 -16 -6 4 -8 11 -5 16 8 12 42 12 50 0z"/>
<path d="M12100 8210 c0 -5 -13 -10 -30 -10 -19 0 -33 -7 -40 -19 -14 -27 -13
-29 14 -24 13 3 35 -3 49 -12 15 -9 34 -14 46 -10 28 9 33 -7 12 -39 -12 -17
-21 -24 -25 -17 -11 17 -61 13 -79 -7 -22 -25 -21 -82 2 -134 10 -24 24 -56
30 -71 8 -21 17 -28 33 -25 34 5 35 34 2 33 -15 0 -29 6 -31 12 -6 16 37 33
83 33 40 0 74 29 74 63 0 37 -27 67 -61 67 -33 0 -33 0 -17 35 13 28 20 30 47
13 28 -17 54 -3 48 28 -6 32 22 30 39 -4 12 -24 24 -19 24 9 0 38 -77 52 -118
23 -25 -18 -46 -8 -57 27 -7 21 -45 46 -45 29z m145 -79 c3 -5 1 -12 -5 -16
-14 -9 -52 4 -45 16 8 12 42 12 50 0z"/>
<path d="M834 7446 c-92 -56 -109 -196 -33 -261 83 -69 212 9 153 93 -18 26
-69 30 -94 7 -15 -14 -18 -14 -30 0 -20 24 -1 83 33 109 39 28 126 28 164 0
55 -41 68 -70 68 -147 -1 -85 -20 -128 -102 -228 -57 -72 -272 -283 -279 -276
-2 2 3 23 11 47 52 149 -41 280 -200 280 -129 0 -214 -82 -215 -206 0 -121
142 -213 216 -139 35 35 31 93 -8 115 -25 13 -31 13 -55 0 -16 -9 -29 -26 -31
-38 -4 -28 -13 -28 -40 1 -29 31 -30 99 -2 145 24 38 88 71 140 72 52 0 120
-38 142 -80 25 -48 23 -85 -11 -192 -68 -215 -82 -378 -42 -480 28 -73 105
-158 172 -191 l50 -25 -61 -33 c-71 -37 -118 -90 -157 -175 -51 -110 -42 -238
32 -475 40 -126 43 -160 16 -209 -22 -42 -90 -80 -140 -80 -53 1 -117 34 -141
72 -26 44 -26 107 1 142 25 32 37 33 41 4 2 -12 15 -29 30 -38 67 -37 120 59
64 115 -47 47 -136 25 -189 -47 -31 -42 -35 -133 -9 -185 38 -74 106 -113 197
-113 92 0 163 41 196 115 22 48 24 96 5 158 -8 26 -12 47 -9 47 11 0 210 -191
265 -255 88 -103 112 -154 113 -242 0 -77 -13 -106 -68 -147 -38 -28 -125 -28
-164 0 -34 26 -53 85 -33 109 12 14 15 14 30 0 25 -23 76 -19 94 7 39 56 -2
118 -78 118 -81 0 -135 -73 -121 -163 16 -97 79 -147 185 -147 129 0 210 83
210 214 0 123 -52 209 -235 389 -112 111 -126 128 -100 123 17 -3 46 -8 66
-12 57 -9 144 13 192 50 104 79 95 245 -16 311 -52 30 -97 32 -154 6 -70 -32
-101 -108 -69 -170 21 -40 54 -55 101 -47 44 9 64 41 45 75 -12 24 -56 45 -77
37 -20 -8 -16 28 6 48 31 28 90 31 129 6 62 -39 79 -139 34 -199 -34 -47 -75
-63 -155 -63 -93 1 -146 22 -196 78 -48 55 -66 116 -65 219 0 94 21 150 80
214 54 61 104 83 196 89 87 5 128 -7 158 -46 54 -68 -11 -168 -76 -117 -19 15
-19 16 4 31 28 21 28 40 -2 59 -28 19 -69 7 -86 -24 -27 -51 32 -121 101 -121
77 0 119 41 119 118 0 54 -30 103 -78 127 -23 11 -41 22 -41 25 0 3 18 14 41
25 48 24 78 73 78 127 0 77 -41 118 -120 118 -79 0 -130 -90 -80 -140 25 -25
41 -25 70 -2 25 20 19 48 -13 58 -21 7 -21 7 2 25 31 25 53 24 79 -4 31 -33
29 -79 -7 -119 l-29 -33 -99 0 c-114 0 -155 16 -217 86 -63 69 -81 120 -81
224 1 109 27 178 86 229 49 41 97 56 185 56 104 0 159 -42 171 -127 14 -108
-103 -194 -181 -132 -35 27 -33 45 6 53 67 13 87 60 42 95 -46 36 -102 24
-129 -29 -48 -93 40 -199 156 -188 92 9 153 84 153 189 1 99 -66 169 -181 191
-46 8 -70 7 -115 -4 -32 -8 -58 -13 -58 -10 0 3 52 55 116 116 187 177 250
284 242 410 -5 78 -33 132 -87 171 -36 25 -53 30 -114 33 -63 3 -77 0 -113
-22z"/>
<path d="M11759 7447 c-67 -36 -100 -90 -107 -175 -9 -133 51 -237 242 -418
64 -61 116 -113 116 -116 0 -3 -26 2 -57 10 -107 27 -218 -10 -271 -91 -51
-76 -29 -198 45 -254 120 -92 304 30 238 157 -27 53 -83 65 -129 29 -45 -35
-25 -82 42 -95 39 -8 41 -26 6 -53 -78 -62 -195 24 -181 132 12 85 67 127 171
127 88 0 136 -15 185 -56 59 -51 85 -120 86 -229 0 -104 -18 -155 -81 -224
-62 -70 -103 -86 -217 -86 l-99 0 -29 33 c-37 41 -39 89 -6 120 29 27 48 28
78 3 23 -18 23 -18 2 -25 -32 -10 -38 -38 -13 -58 29 -23 45 -23 70 2 50 50
-1 140 -80 140 -79 0 -120 -41 -120 -118 0 -54 30 -103 78 -127 23 -11 41 -22
41 -25 0 -3 -18 -14 -41 -25 -48 -24 -78 -73 -78 -127 0 -77 42 -118 119 -118
69 0 128 70 101 121 -17 31 -58 43 -86 24 -30 -19 -30 -38 -1 -59 22 -15 22
-16 3 -31 -65 -51 -130 49 -76 117 30 39 71 51 158 46 92 -6 142 -28 196 -89
59 -64 80 -120 80 -214 1 -103 -17 -164 -65 -219 -50 -56 -103 -77 -196 -78
-80 0 -121 16 -155 63 -67 89 1 228 105 215 69 -8 109 -70 46 -72 -17 -1 -40
-11 -52 -22 -44 -45 16 -106 88 -88 59 15 81 110 40 172 -21 32 -88 63 -136
64 -49 0 -121 -47 -144 -96 -24 -50 -25 -138 -2 -182 37 -70 158 -123 246
-108 20 4 50 9 66 12 26 5 12 -12 -100 -123 -183 -179 -235 -266 -235 -389 0
-131 81 -214 210 -214 106 0 169 50 185 147 14 90 -40 163 -121 163 -76 0
-117 -62 -78 -118 18 -26 69 -30 94 -7 15 14 18 14 30 0 20 -24 1 -83 -33
-109 -39 -28 -126 -28 -164 0 -55 41 -68 70 -68 147 1 88 25 139 113 242 55
64 254 255 265 255 3 0 -1 -21 -9 -47 -46 -152 43 -273 201 -273 91 0 159 39
197 113 26 52 22 143 -9 185 -53 72 -142 94 -189 47 -35 -35 -31 -93 9 -115
24 -13 30 -13 55 0 15 9 28 26 30 38 4 29 16 28 41 -4 27 -35 27 -98 1 -142
-59 -96 -236 -89 -284 12 -23 49 -20 81 19 205 76 244 83 366 28 483 -37 78
-93 137 -163 173 l-52 26 51 25 c67 34 144 119 172 192 40 102 26 265 -42 480
-34 107 -36 144 -11 192 22 42 90 80 142 80 52 -1 116 -34 140 -72 29 -47 27
-118 -3 -146 -29 -28 -35 -27 -39 0 -2 12 -15 29 -30 38 -67 37 -120 -59 -64
-115 74 -74 216 18 216 139 -1 124 -86 206 -215 206 -159 0 -252 -131 -200
-280 8 -24 13 -45 11 -48 -8 -7 -221 205 -281 278 -80 99 -99 142 -100 227 0
77 13 106 68 147 38 28 125 28 164 0 34 -26 53 -85 33 -109 -12 -14 -15 -14
-30 0 -9 8 -30 15 -47 15 -61 0 -84 -70 -38 -115 34 -35 102 -35 144 0 54 46
63 121 24 203 -37 78 -171 108 -264 59z"/>
<path d="M276 6449 c-37 -29 -36 -83 3 -136 50 -69 188 -148 280 -160 l46 -6
-50 49 c-35 34 -64 76 -93 137 -23 48 -54 99 -68 112 -33 31 -82 33 -118 4z"/>
<path d="M12406 6445 c-14 -13 -45 -64 -68 -112 -29 -61 -57 -103 -92 -135
-47 -46 -48 -48 -23 -48 42 0 147 42 211 85 74 49 116 105 116 156 0 72 -88
106 -144 54z"/>
<path d="M105 6151 c-120 -29 -144 -141 -40 -191 67 -32 148 -27 298 20 71 22
169 45 218 52 49 6 89 15 89 19 0 4 -30 10 -67 14 -62 6 -144 26 -323 76 -68
19 -124 22 -175 10z"/>
<path d="M12520 6141 c-158 -45 -260 -69 -322 -76 -38 -4 -68 -10 -68 -14 0
-4 40 -13 89 -19 49 -7 147 -30 218 -52 150 -47 231 -52 298 -20 85 41 87 133
4 175 -48 25 -145 28 -219 6z"/>
<path d="M515 5926 c-95 -30 -211 -106 -244 -160 -45 -72 -13 -146 63 -146 50
0 76 28 125 133 36 78 107 167 133 167 5 0 6 5 3 10 -8 13 -30 12 -80 -4z"/>
<path d="M12206 5931 c-4 -6 -3 -11 2 -11 26 0 97 -89 133 -167 49 -106 75
-133 127 -133 74 0 106 74 61 146 -49 81 -297 207 -323 165z"/>
<path d="M627 4605 c-124 -31 -220 -183 -284 -447 -22 -91 -25 -409 -5 -503
48 -215 105 -360 288 -720 216 -427 216 -429 222 -631 8 -325 -67 -723 -229
-1206 -90 -270 -91 -337 -8 -432 47 -53 93 -76 154 -76 73 0 137 45 168 119
l14 34 13 -37 c30 -91 128 -156 236 -156 45 0 87 9 158 35 236 85 587 181 811
220 244 43 541 58 656 34 85 -18 211 -74 419 -184 334 -176 557 -268 750 -310
116 -25 364 -31 480 -11 184 32 360 108 437 188 48 50 77 122 69 175 -8 57
-25 89 -77 141 -149 147 -427 169 -646 52 -40 -21 -74 -36 -77 -32 -11 20 -57
227 -64 292 l-8 75 -13 -60 c-18 -82 -10 -224 18 -295 11 -30 21 -58 21 -63 0
-4 -17 3 -38 16 -20 13 -81 50 -135 81 -54 32 -124 78 -154 103 l-56 46 43
-61 c67 -96 183 -181 294 -216 l55 -18 48 40 c68 58 150 98 240 118 66 14 88
15 153 5 139 -21 262 -99 296 -187 54 -142 -82 -265 -381 -345 -113 -30 -336
-37 -465 -15 -207 36 -315 82 -880 373 -234 120 -282 135 -469 141 -84 2 -203
-1 -265 -7 -278 -29 -641 -112 -976 -225 -213 -72 -265 -79 -335 -47 -73 33
-122 113 -110 177 12 65 85 124 152 124 67 0 134 -79 114 -134 -23 -59 -96
-74 -143 -29 -20 19 -31 24 -39 16 -27 -27 41 -83 101 -83 67 0 130 61 130
126 0 68 -90 144 -170 144 -73 -1 -161 -64 -176 -127 -6 -23 -9 -21 -33 28
-42 86 -129 119 -195 73 -60 -41 -74 -131 -30 -183 14 -17 32 -31 39 -31 27 0
27 22 1 49 -73 76 26 185 113 125 27 -19 51 -71 51 -110 0 -64 -80 -144 -143
-144 -92 0 -176 96 -177 202 0 32 22 114 69 255 159 478 238 899 229 1229 -5
209 4 186 -280 744 -211 416 -255 570 -245 850 12 308 130 570 274 609 161 43
322 -203 284 -433 -14 -85 -64 -192 -121 -260 -49 -58 -48 -62 11 -185 44 -89
140 -197 209 -235 l35 -20 -38 43 c-21 23 -53 66 -71 94 -32 50 -136 234 -136
240 0 2 33 -8 73 -21 84 -29 221 -35 297 -12 l45 14 -80 7 c-66 5 -282 52
-293 64 -2 2 9 22 23 45 41 64 73 159 86 252 21 150 -22 310 -112 412 -67 76
-139 102 -222 81z"/>
<path d="M12090 4610 c-53 -10 -94 -35 -139 -86 -55 -63 -90 -140 -109 -243
-13 -72 -13 -98 -3 -169 13 -93 46 -188 86 -252 14 -23 25 -43 23 -45 -11 -12
-227 -59 -293 -64 l-80 -7 45 -14 c76 -23 213 -17 298 12 39 13 72 23 72 21 0
-6 -104 -190 -136 -240 -18 -28 -50 -71 -71 -94 l-38 -43 35 20 c69 38 165
146 209 235 59 123 60 127 11 185 -57 68 -107 175 -121 260 -38 230 123 476
283 433 144 -38 263 -303 275 -609 10 -278 -35 -435 -241 -840 -284 -558 -279
-544 -284 -760 -4 -169 7 -300 44 -515 41 -235 138 -591 223 -823 49 -131 37
-226 -35 -294 -56 -52 -114 -61 -174 -27 -90 51 -106 179 -28 233 85 60 188
-54 113 -124 -14 -13 -25 -29 -25 -37 0 -24 38 -14 64 18 59 70 15 183 -79
203 -45 10 -114 -29 -142 -79 -13 -22 -23 -35 -23 -28 0 22 -54 76 -95 94 -22
10 -56 19 -75 19 -49 0 -120 -38 -147 -79 -71 -106 52 -236 167 -176 32 16 55
50 45 65 -10 16 -22 12 -49 -15 -35 -35 -79 -33 -118 5 -25 26 -29 36 -24 63
7 36 53 83 91 93 99 25 201 -82 174 -181 -22 -77 -105 -135 -196 -135 -37 0
-104 18 -230 60 -330 112 -669 194 -938 225 -166 19 -400 19 -481 0 -88 -20
-219 -80 -474 -214 -453 -240 -639 -301 -912 -301 -340 0 -658 151 -658 312 0
151 234 283 441 248 85 -15 208 -74 269 -129 l42 -38 45 13 c116 35 281 162
328 254 18 34 18 34 -37 -15 -30 -28 -93 -72 -139 -99 -46 -26 -106 -61 -133
-78 -27 -16 -50 -27 -53 -25 -2 3 6 29 18 58 28 69 37 239 16 314 l-13 50 -7
-80 c-5 -64 -51 -281 -62 -293 -1 -2 -31 13 -66 32 -218 118 -477 106 -646
-30 -50 -41 -93 -123 -93 -178 1 -126 141 -243 371 -310 134 -38 234 -49 398
-43 276 10 429 61 906 302 187 94 372 181 410 195 133 45 433 39 735 -16 239
-44 542 -126 790 -214 85 -31 126 -40 173 -40 98 1 186 51 222 126 16 34 18
35 28 18 16 -30 60 -75 89 -90 31 -16 105 -18 141 -5 43 17 99 74 123 126 40
85 34 135 -46 373 -160 478 -237 886 -228 1209 6 200 12 216 199 580 149 291
193 387 239 519 73 207 95 347 87 554 -9 227 -64 408 -168 546 -60 81 -139
118 -219 104z"/>
<path d="M660 4250 c0 -17 3 -19 18 -11 13 7 22 7 30 -1 21 -21 0 -37 -59 -44
-44 -5 -64 -12 -74 -28 -32 -45 -5 -106 46 -106 33 0 33 0 17 -35 -13 -28 -20
-30 -47 -13 -10 6 -26 8 -35 5 -17 -7 -23 -47 -6 -47 5 0 7 7 4 15 -5 11 1 15
19 15 30 0 45 -17 23 -26 -9 -3 -30 -7 -48 -8 -25 -1 -35 5 -44 24 -12 22 -14
23 -20 6 -5 -14 -1 -25 15 -38 28 -22 53 -23 92 -2 33 17 53 9 64 -26 3 -10
12 -20 19 -23 20 -8 88 10 97 25 13 20 11 27 -10 21 -10 -3 -33 3 -51 12 -17
9 -39 14 -47 11 -26 -10 -33 4 -17 36 12 22 19 27 27 19 17 -17 62 -13 80 7
23 25 21 84 -3 132 -11 22 -20 47 -20 58 0 25 -19 42 -47 42 -16 0 -23 -6 -23
-20z"/>
<path d="M12082 4258 c-7 -7 -12 -20 -12 -30 0 -11 -9 -36 -20 -58 -25 -50
-26 -111 -2 -133 21 -19 63 -22 79 -6 8 8 15 3 27 -19 16 -32 9 -46 -17 -36
-8 3 -30 -2 -47 -11 -18 -9 -41 -15 -51 -12 -21 6 -23 -1 -10 -21 9 -15 77
-33 97 -25 7 3 16 13 19 23 11 35 31 43 64 26 39 -21 64 -20 92 2 16 13 20 24
15 38 -6 17 -8 16 -20 -6 -9 -19 -19 -25 -44 -24 -18 1 -39 5 -48 8 -22 9 -7
26 23 26 18 0 24 -4 19 -15 -3 -8 -1 -15 5 -15 6 0 9 10 7 23 -3 23 -33 29
-69 13 -11 -5 -19 1 -27 19 -16 35 -16 35 17 35 51 0 78 61 46 106 -10 16 -30
23 -74 28 -59 7 -80 23 -59 44 8 8 17 8 30 1 15 -8 18 -6 18 11 0 23 -38 28
-58 8z"/>
<path d="M723 3734 c-25 -47 -49 -136 -57 -215 -7 -64 8 -202 25 -227 9 -15
10 -14 6 5 -8 35 10 167 39 296 20 91 24 126 17 150 l-9 32 -21 -41z"/>
<path d="M12045 3737 c-4 -20 4 -77 20 -147 28 -125 45 -259 38 -293 -4 -19
-3 -20 6 -5 17 25 32 163 25 227 -8 76 -32 167 -55 213 -11 21 -21 38 -24 38
-2 0 -7 -15 -10 -33z"/>
<path d="M425 2746 c-25 -18 -13 -46 20 -46 30 0 43 24 25 45 -15 18 -21 19
-45 1z"/>
<path d="M12330 2745 c-18 -21 -5 -45 25 -45 33 0 45 28 20 46 -24 18 -30 17
-45 -1z"/>
<path d="M551 2719 c13 -25 29 -79 24 -79 -2 0 -15 5 -29 12 -21 9 -33 8 -63
-5 -21 -9 -47 -18 -58 -20 -17 -3 -16 -5 7 -11 18 -5 38 -3 59 8 67 34 89 15
114 -96 10 -47 21 -75 27 -72 6 4 19 27 30 51 24 54 18 103 -18 150 -13 17
-24 38 -24 45 0 8 -5 6 -11 -5 -8 -14 -5 -29 15 -67 28 -53 33 -99 15 -133
-10 -18 -15 -7 -39 89 -24 101 -44 154 -56 154 -2 0 0 -10 7 -21z"/>
<path d="M12238 2718 c-6 -13 -24 -72 -38 -132 -24 -96 -29 -107 -39 -89 -18
34 -13 80 15 133 20 38 23 53 15 67 -6 11 -11 13 -11 5 0 -7 -11 -28 -25 -46
-35 -46 -41 -87 -21 -140 30 -79 42 -76 61 11 25 112 47 131 114 97 21 -11 41
-13 59 -8 23 6 24 8 7 11 -11 2 -37 11 -58 20 -30 13 -42 14 -63 5 -14 -7 -27
-12 -29 -12 -5 0 11 54 24 79 7 11 9 21 7 21 -3 0 -11 -10 -18 -22z"/>
<path d="M431 2533 c-52 -60 -58 -79 -34 -111 13 -16 28 -26 39 -24 11 2 26 3
34 3 8 0 23 -1 34 -3 11 -2 26 8 39 24 17 23 19 32 10 51 -13 28 -71 97 -82
97 -4 0 -22 -17 -40 -37z"/>
<path d="M12290 2534 c-51 -58 -57 -80 -33 -112 13 -16 28 -26 39 -24 11 2 26
3 34 3 8 0 23 -1 34 -3 24 -4 60 43 52 68 -6 20 -77 104 -88 104 -3 0 -20 -16
-38 -36z"/>
<path d="M620 2426 c0 -10 -9 -16 -24 -16 -13 0 -34 -8 -46 -18 -20 -16 -21
-21 -9 -39 10 -17 10 -27 2 -46 -10 -21 -8 -28 11 -46 12 -12 34 -21 49 -21
15 0 27 -2 27 -4 0 -2 -9 -33 -20 -68 -19 -61 -87 -158 -110 -158 -5 0 0 21
10 46 11 25 20 52 20 59 0 8 7 30 16 48 14 30 15 38 3 63 -13 27 -17 29 -79
29 -61 0 -65 -1 -78 -29 -17 -34 -11 -49 41 -105 l37 -42 25 28 25 28 -6 -30
c-4 -16 -25 -66 -47 -109 -43 -85 -57 -157 -38 -197 12 -23 11 -23 -4 -4 -21
26 -35 82 -29 114 9 41 -14 111 -46 143 -32 32 -56 38 -41 11 5 -10 12 -49 16
-88 4 -38 14 -84 21 -102 15 -34 71 -103 84 -103 19 0 141 -126 159 -164 18
-37 39 -136 29 -136 -2 0 -29 24 -60 53 -56 52 -138 105 -138 89 0 -4 16 -16
35 -25 37 -18 46 -37 17 -37 -10 0 -27 -6 -38 -14 -11 -8 -42 -21 -69 -29
l-50 -14 41 -7 c30 -5 55 -2 95 13 69 27 91 26 116 -1 46 -51 48 -65 15 -129
-32 -63 -27 -76 13 -33 30 33 45 82 45 152 0 58 -17 107 -57 165 -26 37 -26
38 -7 58 10 12 40 32 66 45 66 33 88 65 88 128 0 28 -3 62 -7 75 -6 23 -7 22
-17 -10 -11 -33 -22 -42 -103 -75 -63 -25 -78 -47 -78 -110 l0 -53 -32 31
c-46 45 -66 92 -59 139 10 61 26 87 77 124 58 42 104 118 120 198 10 48 18 64
51 91 l39 34 -41 33 c-22 18 -40 41 -40 51 0 9 -4 20 -10 23 -5 3 -10 -1 -10
-9z"/>
<path d="M12168 2434 c-5 -4 -8 -15 -8 -24 0 -8 -18 -31 -40 -49 l-41 -33 39
-34 c33 -27 41 -43 51 -91 16 -80 62 -156 120 -198 51 -37 67 -63 77 -124 8
-47 -13 -94 -61 -141 l-33 -32 5 39 c8 58 -17 99 -75 124 -26 12 -58 26 -72
33 -14 7 -30 26 -36 45 -10 32 -11 33 -17 10 -4 -13 -7 -47 -7 -75 0 -63 22
-95 88 -128 26 -13 56 -33 66 -45 19 -20 19 -21 -7 -58 -40 -58 -57 -107 -57
-165 0 -70 15 -119 45 -152 40 -43 45 -30 13 33 -33 64 -31 78 15 129 25 27
47 28 116 1 40 -15 65 -18 95 -13 l41 7 -50 14 c-27 8 -58 21 -69 29 -11 8
-28 14 -38 14 -29 0 -20 19 17 37 19 9 35 21 35 25 0 16 -82 -37 -138 -89 -31
-29 -58 -53 -60 -53 -10 0 11 99 29 136 18 38 140 164 158 164 13 0 59 55 79
95 11 22 23 72 27 110 4 39 11 78 16 88 15 27 -9 21 -41 -11 -32 -32 -55 -102
-46 -143 6 -32 -8 -88 -29 -114 -15 -19 -16 -19 -4 4 19 40 5 112 -38 197 -22
43 -43 93 -47 109 l-6 30 25 -28 25 -28 37 42 c52 56 58 71 41 105 -13 28 -17
29 -78 29 -62 0 -66 -2 -79 -29 -12 -25 -11 -33 3 -63 9 -18 16 -40 16 -48 0
-7 9 -34 20 -59 10 -25 15 -46 10 -46 -23 0 -91 97 -110 158 -11 35 -20 66
-20 68 0 2 12 4 27 4 15 0 37 9 49 21 19 18 21 25 11 46 -8 19 -8 29 2 46 12
18 11 23 -9 39 -12 10 -33 18 -45 18 -14 0 -25 7 -27 16 -2 9 -6 12 -10 8z"/>
<path d="M268 2369 l-46 -41 49 -44 c55 -49 84 -54 117 -24 18 17 20 25 11 42
-8 15 -8 27 1 47 10 22 9 28 -10 43 -35 28 -70 21 -122 -23z"/>
<path d="M12410 2392 c-20 -16 -21 -21 -10 -41 9 -17 9 -30 1 -47 -9 -20 -7
-27 11 -44 33 -30 62 -25 117 24 l50 44 -49 41 c-53 45 -85 51 -120 23z"/>
<path d="M439 2344 c-17 -21 0 -49 31 -49 31 0 48 28 31 49 -8 9 -21 16 -31
16 -10 0 -23 -7 -31 -16z"/>
<path d="M12299 2344 c-17 -21 0 -49 31 -49 31 0 48 28 31 49 -8 9 -21 16 -31
16 -10 0 -23 -7 -31 -16z"/>
<path d="M356 1715 c-10 -27 -7 -35 13 -35 10 0 25 -8 32 -17 11 -15 11 -16
-1 -5 -14 12 -82 17 -93 6 -11 -11 13 -43 44 -60 17 -8 29 -18 26 -20 -3 -3
-19 1 -35 10 -27 14 -31 14 -36 0 -11 -28 -6 -34 27 -34 39 0 59 19 78 73 12
33 11 42 -2 65 -17 32 -44 40 -53 17z"/>
<path d="M12396 1708 c-19 -27 -20 -48 -4 -85 20 -47 39 -63 75 -63 33 0 38 6
27 34 -5 14 -9 14 -34 1 -34 -18 -40 -18 -40 -5 0 6 7 10 15 10 21 0 68 47 60
60 -9 14 -78 12 -95 -2 -12 -11 -12 -10 -1 5 7 9 22 17 32 17 20 0 23 8 13 34
-9 23 -30 20 -48 -6z"/>
<path d="M5104 1131 c-119 -54 -154 -239 -61 -329 23 -22 50 -36 88 -44 48
-10 59 -9 100 9 80 36 103 135 42 183 -33 25 -67 26 -93 0 -23 -23 -26 -58 -6
-86 29 -39 -19 -58 -74 -29 -39 20 -50 43 -50 107 0 69 27 113 83 138 83 38
175 18 279 -60 63 -48 313 -299 305 -306 -2 -3 -23 3 -47 11 -76 27 -162 13
-213 -33 -82 -74 -82 -260 0 -334 56 -51 163 -63 226 -25 53 32 77 72 77 128
0 57 -29 89 -81 89 -44 0 -59 -15 -59 -60 0 -40 14 -60 42 -60 24 0 23 -12 -5
-38 -30 -28 -100 -30 -141 -3 -48 32 -66 69 -66 136 0 70 22 114 72 145 46 28
80 25 205 -14 302 -95 451 -86 584 32 25 23 59 66 75 96 l28 55 29 -52 c37
-69 78 -109 146 -145 133 -71 241 -65 576 33 130 38 215 -23 215 -152 0 -57
-26 -105 -72 -133 -44 -27 -111 -27 -138 0 -25 25 -25 40 0 40 37 0 55 74 24
104 -17 18 -66 21 -94 6 -10 -5 -24 -26 -30 -46 -10 -30 -9 -43 5 -80 24 -63
72 -97 145 -102 120 -9 201 63 208 184 6 88 -4 129 -41 171 -60 68 -137 87
-232 58 -27 -8 -50 -13 -52 -11 -2 2 70 75 160 163 181 177 233 211 334 220
107 9 183 -56 183 -155 0 -59 -22 -98 -65 -112 -58 -19 -99 8 -60 40 38 31 0
100 -54 100 -20 0 -37 -9 -55 -31 -70 -83 14 -201 133 -185 118 16 184 122
150 243 -26 95 -107 153 -214 152 -122 0 -207 -51 -383 -229 -92 -93 -132
-127 -128 -110 14 53 18 137 7 176 -42 157 -206 211 -321 107 -74 -66 -75
-165 -3 -235 29 -28 41 -33 83 -33 64 0 100 31 100 87 0 40 -27 78 -55 78 -25
0 -55 -38 -55 -70 0 -23 -4 -30 -20 -30 -46 0 -69 101 -35 154 35 53 122 71
185 37 56 -29 75 -72 75 -166 -1 -69 -5 -87 -29 -132 -35 -63 -87 -101 -163
-119 -127 -30 -238 -4 -326 75 -92 83 -116 291 -40 350 51 41 133 17 133 -38
0 -16 -7 -34 -15 -41 -13 -11 -18 -10 -31 8 -18 26 -27 27 -48 6 -36 -36 -6
-94 48 -94 38 0 96 58 96 97 0 39 -30 95 -60 110 -68 34 -155 2 -196 -71 l-21
-38 -19 38 c-26 54 -75 84 -135 84 -67 0 -109 -37 -115 -100 -6 -57 11 -90 58
-113 31 -15 41 -16 60 -6 44 23 51 64 17 95 -21 19 -21 18 -39 -4 -21 -26 -36
-28 -44 -6 -28 72 38 118 113 79 39 -20 56 -67 55 -151 -1 -124 -56 -207 -174
-263 -47 -22 -69 -26 -145 -26 -180 1 -272 79 -283 241 -8 121 38 191 131 201
118 14 194 -112 115 -190 l-33 -32 -6 44 c-8 63 -43 86 -86 56 -44 -31 -30
-120 23 -144 88 -40 184 36 184 145 0 140 -165 218 -289 138 -34 -22 -48 -40
-71 -89 -21 -44 -27 -147 -11 -203 5 -17 6 -32 2 -32 -4 0 -56 52 -115 115
-116 124 -207 196 -286 226 -65 25 -161 25 -216 0z"/>
<path d="M4286 759 c-8 -12 -12 -28 -9 -36 3 -8 0 -19 -7 -23 -17 -11 1 -35
42 -56 l28 -14 -21 -40 c-20 -39 -19 -69 3 -97 12 -15 48 -17 48 -3 0 6 -7 10
-15 10 -15 0 -35 29 -35 51 0 10 3 10 12 1 23 -23 48 -14 48 16 0 15 -5 33
-11 39 -8 8 -3 16 20 27 30 16 31 16 31 -6 0 -29 9 -42 37 -57 33 -17 51 -14
78 14 19 18 25 35 25 68 0 47 17 71 39 58 8 -5 11 -17 6 -30 -4 -15 -2 -21 9
-21 39 0 29 56 -12 67 -15 3 -45 14 -67 24 -54 25 -110 24 -135 -1 -24 -24
-26 -53 -5 -70 14 -11 12 -15 -15 -32 -37 -22 -49 -17 -43 16 3 13 -3 35 -12
49 -10 16 -14 34 -10 47 8 26 -10 26 -29 -1z m77 -196 c-5 -12 -8 -13 -20 -1
-8 9 -11 22 -7 33 7 17 8 17 20 0 7 -9 10 -24 7 -32z"/>
<path d="M8524 764 c3 -8 -3 -32 -13 -52 -13 -26 -16 -43 -10 -54 14 -26 -6
-31 -41 -10 -27 17 -29 21 -15 32 21 17 19 42 -5 68 -26 28 -86 29 -138 3 -20
-10 -49 -21 -64 -25 -44 -10 -50 -66 -7 -66 17 0 18 3 7 20 -11 17 -10 22 2
30 23 15 40 -9 40 -57 0 -48 33 -93 68 -93 30 0 72 38 72 66 0 24 1 24 29 9
28 -14 29 -16 16 -41 -7 -15 -11 -33 -8 -40 6 -17 35 -18 51 -2 15 15 15 8 2
-26 -5 -14 -16 -26 -25 -26 -8 0 -15 -4 -15 -10 0 -14 33 -13 48 2 17 17 15
84 -4 113 -15 23 -14 24 13 39 42 21 61 45 43 56 -7 4 -10 15 -7 23 6 16 -18
57 -35 57 -5 0 -7 -7 -4 -16z m-19 -174 c9 -15 -16 -43 -27 -32 -10 10 0 42
12 42 5 0 12 -5 15 -10z"/>
<path d="M4040 756 c-12 -11 -261 -56 -324 -58 -36 -1 -63 -5 -59 -9 5 -4 45
-13 91 -19 99 -13 200 -2 304 34 74 26 85 32 75 42 -8 8 -81 17 -87 10z"/>
<path d="M8700 741 c-12 -8 -5 -14 31 -30 88 -39 176 -53 294 -48 131 6 200
25 95 26 -36 1 -119 13 -185 27 -145 31 -215 38 -235 25z"/>
<path d="M2175 711 c-18 -10 -44 -44 -63 -78 -18 -34 -39 -64 -48 -67 -10 -4
-31 4 -52 21 -48 36 -97 52 -162 53 -77 0 -124 -16 -155 -52 -32 -38 -26 -47
13 -20 31 23 79 38 102 33 8 -2 27 -12 42 -23 33 -23 37 -64 13 -123 -10 -22
-15 -58 -13 -88 l3 -52 13 42 c7 23 23 65 36 94 19 39 25 47 30 32 4 -10 16
-29 27 -43 18 -22 18 -20 -3 19 -12 25 -48 71 -78 104 l-55 60 50 -7 c78 -12
125 -38 188 -105 32 -33 62 -61 67 -61 5 0 12 -5 16 -12 4 -7 3 -8 -4 -4 -26
16 -10 -14 21 -40 46 -39 102 -61 177 -69 36 -4 75 -11 88 -16 19 -8 21 -6 13
9 -24 46 -101 85 -160 81 -60 -3 -86 0 -106 14 -16 12 -11 13 36 9 49 -4 62 0
140 40 47 25 99 48 115 52 l29 6 -28 -25 -28 -25 37 -32 c71 -64 90 -69 130
-35 24 21 25 25 13 44 -10 17 -10 27 -1 47 10 22 8 28 -16 46 -14 12 -33 19
-42 16 -30 -9 -86 -29 -134 -47 -27 -10 -51 -17 -53 -15 -2 2 11 20 30 40 36
38 122 82 171 88 26 3 29 0 30 -25 1 -15 11 -36 23 -48 17 -18 23 -19 41 -8
16 10 26 10 45 2 21 -10 28 -9 41 6 8 9 17 28 18 42 2 13 10 27 18 30 11 5 9
9 -10 17 -14 6 -40 26 -58 45 l-34 35 -34 -38 c-26 -28 -46 -40 -76 -45 -78
-13 -131 -44 -199 -115 -77 -80 -126 -100 -191 -81 -35 11 -108 64 -108 80 0
3 23 6 51 6 44 0 54 4 79 32 16 18 34 51 40 73 13 49 41 80 73 80 18 0 19 2 7
10 -26 17 -122 12 -155 -9z"/>
<path d="M10430 720 c-12 -8 -11 -10 8 -10 31 0 59 -31 72 -80 6 -22 24 -55
40 -73 25 -28 35 -32 79 -32 28 0 51 -3 51 -7 0 -14 -77 -69 -110 -79 -63 -19
-113 2 -189 81 -67 70 -119 100 -196 114 -26 5 -53 20 -77 43 l-37 36 -45 -41
c-50 -46 -75 -51 -114 -23 -56 39 -137 35 -177 -9 -10 -11 -28 -20 -39 -21
-21 0 -21 0 1 -11 18 -9 30 -6 67 16 24 14 57 26 73 26 34 0 73 -10 73 -19 0
-3 -50 -18 -112 -33 -79 -20 -118 -34 -133 -50 -19 -21 -19 -22 0 -7 26 21 85
41 85 29 0 -5 -4 -20 -9 -33 -7 -19 -4 -36 14 -73 l24 -49 1 35 c0 20 -7 45
-15 57 -23 32 -2 70 44 83 135 35 181 39 174 12 -2 -10 5 -30 17 -44 18 -24
24 -26 46 -16 20 9 30 9 47 -1 19 -12 23 -11 45 14 16 19 22 35 18 51 -6 22
-4 23 26 18 58 -11 140 -53 175 -90 19 -20 32 -38 30 -40 -2 -2 -26 5 -53 15
-49 19 -104 38 -135 48 -9 2 -29 -6 -44 -19 -25 -22 -26 -26 -14 -46 11 -18
12 -26 1 -43 -11 -18 -11 -24 4 -40 36 -40 81 -31 138 30 l30 31 -25 26 -24
26 25 -7 c14 -4 66 -27 117 -52 83 -41 97 -45 144 -41 46 5 50 4 34 -8 -20
-15 -46 -18 -106 -15 -44 3 -105 -21 -141 -56 -34 -33 -36 -45 -4 -33 13 5 53
12 88 16 34 3 81 14 103 24 55 23 105 67 98 85 -3 8 0 15 5 15 6 0 37 27 69
61 68 71 110 95 184 105 l54 7 -58 -62 c-31 -34 -66 -80 -77 -102 -27 -51 -18
-51 11 1 l23 40 27 -63 c16 -34 29 -72 29 -84 0 -13 5 -23 10 -23 16 0 11 82
-9 139 -22 62 -18 85 18 110 45 32 63 32 120 1 30 -17 56 -28 58 -26 2 2 -8
17 -22 34 -60 72 -225 70 -320 -2 -45 -34 -61 -26 -100 50 -38 72 -72 94 -145
94 -30 0 -62 -5 -70 -10z"/>
<path d="M2884 669 c-17 -5 -39 -18 -48 -28 -18 -19 -17 -20 10 -27 149 -33
158 -39 149 -89 -3 -16 -8 -48 -11 -70 l-5 -40 21 45 c15 30 20 56 16 79 -5
33 -5 33 27 27 67 -12 -1 12 -95 35 -54 12 -98 26 -98 30 0 9 38 19 73 19 16
0 48 -11 71 -25 34 -20 48 -23 67 -16 23 9 23 10 3 10 -12 1 -28 8 -35 18 -17
19 -71 43 -96 42 -10 0 -32 -5 -49 -10z"/>
<path d="M6406 639 c-20 -121 -38 -198 -70 -302 -50 -163 -46 -249 14 -309 47
-47 124 -30 151 34 25 60 17 190 -19 303 -17 55 -39 145 -48 200 -9 55 -18
102 -20 104 -1 1 -5 -12 -8 -30z"/>
<path d="M6253 551 c-32 -37 -64 -59 -136 -94 -132 -63 -166 -117 -116 -181
36 -45 112 -32 171 31 64 67 135 220 126 273 -2 17 -10 13 -45 -29z"/>
<path d="M6522 552 c12 -123 144 -302 223 -302 49 0 71 13 84 51 9 26 8 39 -6
68 -15 30 -36 45 -118 88 -70 36 -113 66 -144 100 l-44 48 5 -53z"/>
<path d="M2774 537 c-24 -21 -25 -25 -13 -45 11 -18 12 -26 1 -43 -11 -18 -11
-24 4 -40 36 -40 81 -31 138 30 l30 31 -30 31 c-29 30 -74 59 -93 59 -5 0 -22
-10 -37 -23z"/>
<path d="M3080 556 c0 -2 8 -10 18 -17 15 -13 16 -12 3 4 -13 16 -21 21 -21
13z"/>
<path d="M9915 548 c-11 -6 -36 -26 -56 -44 l-37 -32 37 -35 c36 -34 71 -57
89 -57 5 0 21 9 35 20 23 18 25 24 15 45 -8 19 -8 31 0 50 10 21 8 27 -15 45
-29 23 -40 24 -68 8z"/>
<path d="M2666 494 c-9 -8 -16 -19 -16 -24 0 -11 29 -40 40 -40 11 0 40 29 40
40 0 11 -29 40 -40 40 -5 0 -16 -7 -24 -16z"/>
<path d="M10046 494 c-9 -8 -16 -19 -16 -24 0 -11 29 -40 40 -40 11 0 40 29
40 40 0 11 -29 40 -40 40 -5 0 -16 -7 -24 -16z"/>
<path d="M3071 466 c-15 -18 -5 -56 13 -56 19 0 38 26 34 47 -4 23 -31 28 -47
9z"/>
<path d="M9643 464 c-8 -20 8 -48 30 -52 8 -2 18 6 22 18 12 38 -38 70 -52 34z"/>
<path d="M1973 404 c-36 -15 -56 -45 -51 -76 4 -25 17 -31 38 -18 12 7 12 12
2 22 -6 6 -12 21 -12 33 1 15 4 12 15 -12 16 -38 47 -57 63 -41 15 15 15 43 1
70 -6 11 -8 22 -5 25 3 4 11 -8 17 -26 8 -22 16 -30 26 -27 8 3 17 6 19 6 13
0 1 31 -18 44 -27 19 -52 19 -95 0z"/>
<path d="M10685 397 l-29 -24 23 -12 c12 -7 24 -11 25 -9 1 2 8 16 14 32 17
38 25 29 10 -11 -14 -37 -5 -63 21 -63 19 0 51 39 51 63 0 20 -21 36 -57 43
-23 4 -36 0 -58 -19z"/>
<path d="M2620 383 c-11 -14 -20 -30 -20 -35 0 -18 29 -64 59 -92 l31 -30 31
30 c44 41 61 78 50 106 -14 38 -36 51 -59 37 -16 -10 -26 -10 -46 -1 -22 10
-28 8 -46 -15z"/>
<path d="M10000 383 c-28 -36 -20 -67 30 -118 l40 -39 31 29 c30 29 59 75 59
93 0 5 -9 21 -20 35 -18 23 -24 25 -46 15 -19 -9 -30 -9 -45 0 -25 16 -24 16
-49 -15z"/>
<path d="M10810 370 c0 -15 -6 -32 -12 -38 -10 -10 -10 -15 2 -22 8 -5 20 -8
25 -7 16 6 17 51 1 72 -15 20 -15 19 -16 -5z"/>
</g>
</svg>
